<?xml version="1.0" standalone="no"?>
<!DOCTYPE svg PUBLIC "-//W3C//DTD SVG 20010904//EN"
 "http://www.w3.org/TR/2001/REC-SVG-20010904/DTD/svg10.dtd">
<svg version="1.0" xmlns="http://www.w3.org/2000/svg"
 width="512.000000pt" height="512.000000pt" viewBox="0 0 512.000000 512.000000"
 preserveAspectRatio="xMidYMid meet">

<g transform="translate(0.000000,512.000000) scale(0.100000,-0.100000)"
fill="#000000" stroke="none">
<path d="M2860 4875 l0 -75 80 0 80 0 0 75 0 75 -80 0 -80 0 0 -75z"/>
<path d="M1960 4693 c-36 -20 -67 -38 -69 -39 -5 -4 38 -86 60 -115 l16 -22
67 38 c36 20 66 39 66 42 0 7 -70 133 -73 133 -1 0 -31 -17 -67 -37z"/>
<path d="M3814 4659 c-42 -70 -43 -67 48 -118 l57 -32 35 64 c20 35 36 67 36
70 0 6 -122 77 -133 77 -3 0 -22 -27 -43 -61z"/>
<path d="M2508 4631 c-101 -40 -175 -108 -219 -197 -16 -34 -26 -44 -38 -39
-124 48 -273 17 -376 -77 -94 -85 -135 -175 -139 -302 l-3 -78 -49 -17 c-92
-31 -174 -102 -219 -191 -22 -42 -45 -125 -45 -161 0 -24 -4 -26 -78 -37 -378
-58 -731 -320 -896 -665 -126 -263 -151 -573 -69 -857 69 -239 235 -471 459
-641 78 -60 104 -110 111 -219 l6 -80 -55 0 c-70 0 -108 -26 -108 -74 0 -54
20 -70 92 -76 l63 -5 3 -67 3 -68 -56 0 c-46 0 -60 -4 -80 -25 -30 -29 -33
-73 -6 -106 14 -18 31 -23 80 -27 l61 -4 0 -123 c0 -122 0 -124 26 -144 22
-18 41 -21 115 -21 l87 0 12 -52 c16 -79 45 -131 101 -183 59 -55 115 -82 190
-91 79 -9 158 10 226 56 72 48 118 115 139 202 l17 68 88 0 c80 0 90 2 118 26
l31 26 0 118 0 117 50 5 c64 6 90 29 90 79 0 50 -35 79 -97 79 l-44 0 3 68 3
67 54 5 c61 7 81 25 81 77 0 50 -29 73 -91 73 l-52 0 6 80 c7 109 37 160 142
244 l80 64 48 -45 c152 -142 397 -135 541 16 l29 31 49 -46 c27 -25 74 -57
106 -72 49 -23 70 -27 152 -27 82 0 103 4 152 27 74 35 149 105 185 174 23 45
32 54 48 49 142 -42 285 -8 388 93 86 84 127 184 127 307 l0 61 53 17 c101 32
206 139 238 242 33 107 28 228 -15 321 l-24 52 30 28 c42 41 87 139 99 216 21
132 -28 266 -131 361 l-59 55 35 69 c120 236 7 504 -248 587 -13 4 -18 16 -18
40 0 55 -37 158 -77 216 -77 110 -195 166 -333 158 l-77 -4 -32 63 c-39 74
-103 135 -181 172 -48 23 -67 26 -160 26 -96 0 -110 -3 -160 -29 -30 -15 -74
-46 -97 -68 l-42 -41 -47 41 c-80 71 -143 96 -254 99 -75 3 -105 -1 -142 -16z
m826 -145 c72 -30 140 -115 160 -201 10 -42 44 -75 77 -75 15 0 46 9 70 20 84
38 168 20 240 -50 35 -33 51 -59 63 -99 20 -67 20 -85 2 -114 -8 -12 -17 -47
-20 -78 -20 -167 -159 -309 -325 -329 -77 -10 -105 -32 -105 -86 0 -28 7 -42
29 -61 26 -23 34 -25 92 -19 203 21 405 194 454 389 6 26 13 47 15 47 2 0 16
-5 31 -12 91 -40 146 -126 145 -231 0 -85 -21 -130 -97 -203 -52 -49 -65 -68
-65 -91 0 -36 42 -83 74 -83 37 0 123 -49 151 -85 39 -52 55 -98 55 -162 0
-69 -25 -124 -77 -174 -31 -29 -51 -38 -106 -48 -96 -17 -167 -45 -252 -102
-124 -83 -201 -191 -224 -312 -17 -92 9 -137 77 -137 47 0 71 27 82 94 18 110
86 190 215 252 39 19 92 38 118 43 l48 9 20 -40 c14 -27 20 -59 20 -103 0
-100 -40 -176 -118 -222 -39 -22 -57 -26 -115 -25 -56 1 -73 -3 -88 -18 -32
-32 -35 -65 -10 -122 66 -153 -49 -337 -210 -338 -67 0 -111 26 -125 75 -46
156 -189 277 -347 292 -62 5 -68 4 -92 -20 -31 -32 -34 -74 -6 -109 14 -19 33
-27 72 -32 163 -22 260 -166 203 -303 -70 -167 -296 -193 -397 -45 l-30 44 1
471 c2 523 1 511 70 590 38 43 141 97 185 97 49 0 105 19 116 40 32 59 -9 130
-75 130 -65 0 -172 -31 -231 -66 -31 -19 -58 -33 -60 -31 -2 1 -4 339 -5 751
l-1 748 29 46 c52 85 176 126 267 88z m-1554 -1135 c277 -70 527 -268 661
-524 237 -454 114 -985 -307 -1319 -139 -110 -176 -179 -182 -335 l-4 -103
-94 0 -94 0 2 453 3 452 85 6 c97 6 144 26 202 86 49 50 68 99 68 173 0 71
-15 112 -60 164 -91 103 -251 112 -358 20 -63 -53 -85 -103 -91 -204 l-6 -85
-85 0 -85 0 -6 85 c-6 101 -28 151 -91 204 -109 94 -269 83 -362 -25 -46 -54
-59 -96 -54 -172 5 -73 28 -127 75 -172 53 -52 98 -69 191 -73 l82 -4 0 -454
0 -454 -85 0 -85 0 0 74 c0 152 -59 266 -188 364 -163 125 -291 287 -357 457
-56 141 -70 221 -69 385 1 121 6 161 27 241 105 399 426 698 830 775 105 20
328 12 437 -15z m149 -1037 c24 -20 31 -34 31 -61 0 -76 -61 -127 -148 -121
l-47 3 -3 45 c-5 67 13 117 51 140 43 27 80 25 116 -6z m-697 -13 c30 -26 33
-34 36 -101 l4 -73 -67 5 c-55 5 -72 11 -96 34 -23 22 -29 36 -29 71 0 88 85
124 152 64z m376 -778 l2 -453 -90 0 -90 0 0 455 0 456 88 -3 87 -3 3 -452z
m340 -675 l3 -68 -426 0 -425 0 0 63 c0 35 3 66 6 69 3 4 193 6 422 5 l417 -2
3 -67z m2 -293 l0 -65 -425 0 -425 0 0 65 0 65 425 0 425 0 0 -65z m-250 -240
c0 -30 -40 -94 -77 -122 -31 -24 -45 -28 -103 -28 -58 0 -72 4 -103 28 -21 16
-46 46 -57 67 -37 72 -41 70 160 70 155 0 180 -2 180 -15z"/>
<path d="M1240 3977 c-19 -34 -35 -68 -35 -75 0 -7 28 -28 61 -47 69 -39 63
-42 113 47 l32 57 -38 24 c-21 13 -52 31 -68 40 l-30 15 -35 -61z"/>
<path d="M4527 3993 l-57 -35 31 -57 c50 -88 47 -87 117 -46 34 20 62 39 62
42 0 17 -73 133 -83 132 -7 0 -38 -17 -70 -36z"/>
<path d="M785 3694 c-33 -20 -64 -40 -69 -44 -8 -8 59 -130 71 -130 10 0 133
71 133 76 0 6 -71 134 -73 134 -1 -1 -29 -17 -62 -36z"/>
<path d="M235 3144 c-30 -53 -35 -68 -24 -75 131 -79 116 -80 168 13 l32 57
-38 24 c-52 33 -80 47 -91 47 -6 0 -27 -30 -47 -66z"/>
<path d="M4750 2980 l0 -80 80 0 80 0 0 80 0 80 -80 0 -80 0 0 -80z"/>
<path d="M40 2405 l0 -86 78 3 77 3 3 83 3 82 -81 0 -80 0 0 -85z"/>
<path d="M4515 2089 c-20 -34 -37 -66 -38 -72 -1 -5 27 -27 63 -48 l64 -38 39
66 c21 36 36 71 34 77 -3 6 -32 26 -65 44 l-61 33 -36 -62z"/>
<path d="M268 1786 c-32 -18 -60 -35 -64 -38 -7 -7 67 -138 79 -138 10 0 116
60 122 70 5 8 -66 140 -75 140 -3 -1 -31 -15 -62 -34z"/>
<path d="M3845 1414 c-33 -20 -62 -38 -63 -39 -3 -3 63 -122 73 -133 1 -1 34
16 73 38 l70 41 -36 64 c-21 35 -41 64 -47 64 -5 0 -37 -16 -70 -35z"/>
<path d="M2860 1095 l0 -75 80 0 80 0 0 75 0 75 -80 0 -80 0 0 -75z"/>
</g>
</svg>
